# xmcd
#
# Track frame offsets:
#	150
#	13923
#	26107
#	42513
#	60385
#	73215
#	88901
#	100243
#	116114
#	136320
#	153442
#
# Disc length: 2291 seconds
# Revision: 0
# Processed by: cddbd v1.5.2PL0 Copyright (c) Steve Scherf et al.
# Submitted via: dBpowerAMP V12.0
#
DISCID=9d08f10b
DTITLE=Ruby Dee And The Snakehandlers - Live From Austin Texas
DYEAR=2010
DGENRE=Country
TTITLE0=Who Is She?
TTITLE1=I Remember You
TTITLE2=Alcohol of Fame
TTITLE3=So Long
TTITLE4=Since You Went Away
TTITLE5=I Told You So
TTITLE6=Setting The Woods Of Fire
TTITLE7=Better Slow Down
TTITLE8=Switchblade Pompadour
TTITLE9=18 Wheels
TTITLE10=Shameful Breaker
EXTD=
EXTT0=
EXTT1=
EXTT2=
EXTT3=
EXTT4=
EXTT5=
EXTT6=
EXTT7=
EXTT8=
EXTT9=
EXTT10=
PLAYORDER=
